<svg xmlns="http://www.w3.org/2000/svg" xmlns:xlink="http://www.w3.org/1999/xlink" id="rollbar-mark-color" x="0" y="0" version="1.1" viewBox="0 0 304 240" style="enable-background:new 0 0 304 240" xml:space="preserve"><style type="text/css">.st0{fill:#3a4757}.st1{fill:#f7941d}.st2{fill:#bfd730}.st3{fill:#00bad9}</style><title>rollbar-logo-color-vertical</title><g id="icon"><path d="M303.8,239.1V25.7c-0.5-13.6-0.9-34.3-31.4-21.9C221.7,22.4,170.6,40.2,120.3,60C82.2,75,40.5,91.4,19,171.6 c-5.6,21-13.4,46.4-19,67.5h49.4c4.6-17,10.2-38.4,14.8-55.4c15.4-57.4,45.6-69.3,73.2-80.1C176.9,88,217,73.8,257,59.1v179.9 H303.8z" class="st0"/><path d="M119,124.5c-5,2.8-9.8,6.1-14.1,9.9c-14.9,13.3-23,32.2-28,51.1l-14.1,51.9H119V124.5z" class="st1"/><path d="M180.1,99.7c-12.7,4.7-25.3,9.6-38,14.5c-3.4,1.3-6.7,2.6-10,4v119.2H180L180.1,99.7z" class="st2"/><path d="M243.8,237.4v-161c-16.8,6.1-33.7,12.2-50.5,18.4v142.6H243.8z" class="st3"/></g></svg>