<svg xmlns="http://www.w3.org/2000/svg" xmlns:xlink="http://www.w3.org/1999/xlink" version="1.1" viewBox="0 0 74 76"><title>Jira Software-blue</title><desc>Created with Sketch.</desc><defs><linearGradient id="linearGradient-1" x1="67.68%" x2="40.821%" y1="40.328%" y2="81.66%"><stop offset="18%" stop-color="#777"/><stop offset="100%" stop-color="#999"/></linearGradient><linearGradient id="linearGradient-2" x1="32.656%" x2="59.343%" y1="59.166%" y2="17.99%"><stop offset="18%" stop-color="#777"/><stop offset="100%" stop-color="#999"/></linearGradient></defs><g id="Page-1" fill="none" fill-rule="evenodd" stroke="none" stroke-width="1"><g id="Jira-Software-blue" fill-rule="nonzero"><path id="Shape" fill="#999" d="M72.4,35.76 L39.8,3.16 L36.64,0 L36.64,0 L12.1,24.54 L12.1,24.54 L0.88,35.76 C-0.289813512,36.9312702 -0.289813512,38.8287298 0.88,40 L23.3,62.42 L36.64,75.76 L61.18,51.22 L61.56,50.84 L72.4,40 C73.5698135,38.8287298 73.5698135,36.9312702 72.4,35.76 Z M36.64,49.08 L25.44,37.88 L36.64,26.68 L47.84,37.88 L36.64,49.08 Z"/><path id="Path" fill="url(#linearGradient-1)" d="M36.64,26.68 C29.3070783,19.346212 29.2713402,7.46777926 36.56,0.09 L12.05,24.59 L25.39,37.93 L36.64,26.68 Z"/><path id="Path" fill="url(#linearGradient-2)" d="M47.87,37.85 L36.64,49.08 C40.179363,52.6172581 42.1679334,57.4160731 42.1679334,62.42 C42.1679334,67.4239269 40.179363,72.2227419 36.64,75.76 L36.64,75.76 L61.21,51.19 L47.87,37.85 Z"/></g></g></svg>