<svg xmlns="http://www.w3.org/2000/svg" xmlns:xlink="http://www.w3.org/1999/xlink" width="840" height="1024" version="1.1" viewBox="0 0 840 1024"><title>pattern-login</title><defs><rect id="path-1" width="840" height="1024" x="0" y="0"/></defs><g id="Page-1" fill="none" fill-rule="evenodd" stroke="none" stroke-width="1"><g id="Clipped"><mask id="mask-2" fill="#fff"><use xlink:href="#path-1"/></mask><g id="Group" mask="url(#mask-2)" opacity=".1"><g transform="translate(-624.000000, -238.000000)"><polygon id="Fill-1" fill="#059FE2" fill-rule="nonzero" points="1647.538 1500 1896.364 1500 1063.338 750.948"/><polygon id="Fill-2" fill="#F7931E" fill-rule="nonzero" points="0 452.886 1061.461 749.576 0 140.924"/><polygon id="Fill-3" fill="#24B7EA" fill-rule="nonzero" points="2124.922 1359.077 2124.922 1047.114 1063.46 750.424"/><polygon id="Fill-4" fill="red" fill-rule="nonzero" points="0 1359.372 0 1500.001 228.206 1500.001 1061.51 750.697"/><polygon id="Fill-5" fill="#2E3192" fill-rule="nonzero" points="1200.631 1500 1278.911 1500 1062.855 751.676"/><polygon id="Fill-6" fill="#0071BC" fill-rule="nonzero" points="1371.329 1500 1487.332 1500 1063.128 751.38"/><polygon id="Fill-7" fill="#161E7F" fill-rule="nonzero" points="1062.541 1500 1129.691 1500 1062.542 751.809"/><polygon id="Fill-8" fill="#C1272D" fill-rule="nonzero" points="477.657 1500 637.363 1500 1061.679 751.178"/><polygon id="Fill-9" fill="#FC4D17" fill-rule="nonzero" points="0 1046.829 1061.434 750.143 1004.638 750.142 0 750.14"/><polygon id="Fill-10" fill="#662D91" fill-rule="nonzero" points="924.459 1500 995.068 1500 1062.22 751.764"/><polygon id="Fill-11" fill="#FCEE21" fill-rule="nonzero" points="637.591 0 1061.793 748.617 753.593 0"/><polygon id="Fill-12" fill="#8CC63F" fill-rule="nonzero" points="995.232 0 1062.38 748.188 1062.381 0"/><polygon id="Fill-13" fill="#22B573" fill-rule="nonzero" points="1896.715 0 1063.409 749.308 2124.922 140.629 2124.922 0"/><polygon id="Fill-14" fill="#006837" fill-rule="nonzero" points="1487.559 0 1063.243 748.821 1647.266 0"/><polygon id="Fill-15" fill="#12C623" fill-rule="nonzero" points="1129.853 0 1062.701 748.232 1200.462 0"/><polygon id="Fill-16" fill="#9E005D" fill-rule="nonzero" points="753.79 1500 845.83 1500 1061.922 751.551"/><polygon id="Fill-17" fill="#D9E021" fill-rule="nonzero" points="846.011 0 1062.067 748.321 924.29 0"/><polygon id="Fill-18" fill="#009245" fill-rule="nonzero" points="1279.092 0 1062.999 748.453 1371.131 0"/><polygon id="Fill-19" fill="#00A99D" fill-rule="nonzero" points="1063.488 749.857 2124.922 749.859 2124.922 453.172"/><polygon id="Fill-20" fill="#FBB03B" fill-rule="nonzero" points="228.559 0 1061.583 749.05 477.384 0"/></g></g></g></g></svg>