<svg xmlns="http://www.w3.org/2000/svg" id="el_22wuds-Cf" viewBox="0 0 13 27"><style>@-webkit-keyframes kf_el_ukIWbUdgvd_an_oDxmZQ0Bk{0%{opacity:1}25%,50%,75%{opacity:0}}@keyframes kf_el_ukIWbUdgvd_an_oDxmZQ0Bk{0%{opacity:1}25%,50%,75%{opacity:0}}@-webkit-keyframes kf_el_wEsVhhqPf8_an_E-KQq13rj{0%,25%,75%{opacity:0}50%{opacity:1}}@keyframes kf_el_wEsVhhqPf8_an_E-KQq13rj{0%,25%,75%{opacity:0}50%{opacity:1}}@-webkit-keyframes kf_el_U2FCiqgzxb_an_m9yzz8xkM{0%,50%{opacity:0}25%,75%{opacity:1}}@keyframes kf_el_U2FCiqgzxb_an_m9yzz8xkM{0%,50%{opacity:0}25%,75%{opacity:1}}#el_22wuds-Cf *{-webkit-animation-duration:2s;animation-duration:2s;-webkit-animation-iteration-count:infinite;animation-iteration-count:infinite;-webkit-animation-timing-function:cubic-bezier(0,0,1,1);animation-timing-function:cubic-bezier(0,0,1,1)}#el_f4mc7WDh_4{fill:none}#el_aKdbwQQQqk{fill:#effcfb}#el_U2FCiqgzxb{opacity:0}#el_U2FCiqgzxb,#el_ukIWbUdgvd,#el_wEsVhhqPf8{fill:#42ae5e;-webkit-animation-fill-mode:backwards;animation-fill-mode:backwards;-webkit-animation-timing-function:cubic-bezier(0,0,1,1);animation-timing-function:cubic-bezier(0,0,1,1)}#el_wEsVhhqPf8{opacity:0;-webkit-animation-name:kf_el_wEsVhhqPf8_an_E-KQq13rj;animation-name:kf_el_wEsVhhqPf8_an_E-KQq13rj}#el_U2FCiqgzxb{-webkit-animation-name:kf_el_U2FCiqgzxb_an_m9yzz8xkM;animation-name:kf_el_U2FCiqgzxb_an_m9yzz8xkM}#el_ukIWbUdgvd{opacity:1;-webkit-animation-name:kf_el_ukIWbUdgvd_an_oDxmZQ0Bk;animation-name:kf_el_ukIWbUdgvd_an_oDxmZQ0Bk}#el_gkRDYgdIfg{fill:#d4e0d7}</style><g id="el_f4mc7WDh_4" fill-rule="evenodd"><rect id="el_aKdbwQQQqk" width="12.75" height="27" rx="6.375"/><circle id="el_wEsVhhqPf8" cx="6.5" cy="21" r="3"/><circle id="el_U2FCiqgzxb" cx="6.5" cy="13.5" r="3"/><circle id="el_ukIWbUdgvd" cx="6.5" cy="6" r="3"/><path id="el_gkRDYgdIfg" fill-rule="nonzero" d="M6.375,0 C9.89581528,0 12.75,2.85418472 12.75,6.375 L12.75,20.625 C12.75,24.1458153 9.89581528,27 6.375,27 C2.85418472,27 0,24.1458153 0,20.625 L0,6.375 C0,2.85418472 2.85418472,0 6.375,0 Z M6.375,1 C3.40646947,1 1,3.40646947 1,6.375 L1,20.625 C1,23.5935305 3.40646947,26 6.375,26 C9.34353053,26 11.75,23.5935305 11.75,20.625 L11.75,6.375 C11.75,3.40646947 9.34353053,1 6.375,1 Z"/></g></svg>