<svg xmlns="http://www.w3.org/2000/svg" id="el_hJM0blsye" viewBox="0 0 13 27"><style>@-webkit-keyframes kf_el_H4wBHCHYLZ_an_N9RZJSx8m{0%{opacity:1}25%,50%,75%{opacity:0}}@keyframes kf_el_H4wBHCHYLZ_an_N9RZJSx8m{0%{opacity:1}25%,50%,75%{opacity:0}}@-webkit-keyframes kf_el_NXzqKnXQqe_an_M-ATTs1w-{0%,50%{opacity:0}25%,75%{opacity:1}}@keyframes kf_el_NXzqKnXQqe_an_M-ATTs1w-{0%,50%{opacity:0}25%,75%{opacity:1}}@-webkit-keyframes kf_el_ttqcMIA9Q7_an_BL4putSZn{0%,25%,75%{opacity:0}50%{opacity:1}}@keyframes kf_el_ttqcMIA9Q7_an_BL4putSZn{0%,25%,75%{opacity:0}50%{opacity:1}}#el_hJM0blsye *{-webkit-animation-duration:2s;animation-duration:2s;-webkit-animation-iteration-count:infinite;animation-iteration-count:infinite;-webkit-animation-timing-function:cubic-bezier(0,0,1,1);animation-timing-function:cubic-bezier(0,0,1,1)}#el_4MjBel3U5a{fill:none}#el_kN5g_r6aRg{fill:#fcefef}#el_H4wBHCHYLZ,#el_NXzqKnXQqe,#el_ttqcMIA9Q7{fill:#c00;-webkit-animation-fill-mode:backwards;animation-fill-mode:backwards;-webkit-animation-timing-function:cubic-bezier(0,0,1,1);animation-timing-function:cubic-bezier(0,0,1,1)}#el_NXzqKnXQqe,#el_ttqcMIA9Q7{opacity:0}#el_ttqcMIA9Q7{-webkit-animation-name:kf_el_ttqcMIA9Q7_an_BL4putSZn;animation-name:kf_el_ttqcMIA9Q7_an_BL4putSZn}#el_NXzqKnXQqe{-webkit-animation-name:kf_el_NXzqKnXQqe_an_M-ATTs1w-;animation-name:kf_el_NXzqKnXQqe_an_M-ATTs1w-}#el_H4wBHCHYLZ{opacity:1;-webkit-animation-name:kf_el_H4wBHCHYLZ_an_N9RZJSx8m;animation-name:kf_el_H4wBHCHYLZ_an_N9RZJSx8m}#el_ERDGwQOizM{fill:#e0d4d4}</style><g id="el_4MjBel3U5a" fill-rule="evenodd"><rect id="el_kN5g_r6aRg" width="12.75" height="27" rx="6.375"/><circle id="el_ttqcMIA9Q7" cx="6.5" cy="21" r="3"/><circle id="el_NXzqKnXQqe" cx="6.5" cy="13.5" r="3"/><circle id="el_H4wBHCHYLZ" cx="6.5" cy="6" r="3"/><path id="el_ERDGwQOizM" fill-rule="nonzero" d="M6.375,0 C9.89581528,0 12.75,2.85418472 12.75,6.375 L12.75,20.625 C12.75,24.1458153 9.89581528,27 6.375,27 C2.85418472,27 0,24.1458153 0,20.625 L0,6.375 C0,2.85418472 2.85418472,0 6.375,0 Z M6.375,1 C3.40646947,1 1,3.40646947 1,6.375 L1,20.625 C1,23.5935305 3.40646947,26 6.375,26 C9.34353053,26 11.75,23.5935305 11.75,20.625 L11.75,6.375 C11.75,3.40646947 9.34353053,1 6.375,1 Z"/></g></svg>